<svg xmlns="http://www.w3.org/2000/svg" version="1.1" xmlns:xlink="http://www.w3.org/1999/xlink" xmlns:svgjs="http://svgjs.dev/svgjs" viewBox="0 0 1920 1080"><rect width="1920" height="1080" fill="#247aeb"></rect><g transform="matrix(1.1108147002324285,0.29764190186789885,-0.29764190186789885,1.1108147002324285,59.064049053937424,-332.8997667202)"><path d="M0,-1080C-6.58038908829199,-1000.4455287866733,-27.904001323216725,-756.164886760277,-39.48233452975194,-602.6731727200396C-51.06066773628715,-449.1814586798022,-68.91006907187897,-317.98049793072653,-69.46999923921128,-159.0497157585757C-70.02992940654359,-0.1189335864249017,-68.16789321046225,197.52979423762744,-42.84191553374583,350.91152031286515C-17.51593785702941,504.29324638810283,86.76219870942528,621.0010435152765,82.48586682108728,761.2406406928505C78.20953493274929,901.4802378704246,-42.47138166179758,1045.664724304722,-68.49990686377376,1192.3491033783098C-94.52843206574994,1339.0334824518975,-85.10193553473206,1480.0717656974282,-73.68528439076977,1641.3469151343766C-62.268633246807475,1802.622064571325,-12.28088073179496,2073.5578191890627,0,2160L 1920 2160 L 1920 -1080 Z" fill="url(&quot;#SvgjsLinearGradient1133&quot;)"></path><path d="M320,-1080C316.81965444793366,-948.4349850392333,292.80688395983276,-560.3330208636517,300.91792668760206,-290.60991023539964C309.02896941537136,-20.88679960714768,363.7461573055608,253.28328560973648,368.6662563666157,538.3386637695119C373.5863554276706,823.3940419292873,338.54956378170084,1149.4454693515047,330.43852105393154,1419.7223587232527C322.32747832616224,1689.9992480950007,321.7397535089886,2036.620393120542,320,2160L 1920 2160 L 1920 -1080 Z" fill="url(&quot;#SvgjsLinearGradient1134&quot;)"></path><path d="M640,-1080C652.5153721584207,-966.6593487336961,722.1668858880395,-620.8846368970447,715.0922329505247,-399.9560924021763C708.0175800130099,-179.02754790730785,623.7311432058053,30.829865380410382,597.5520823749113,245.5712669692108C571.3730215440172,460.3126685580112,562.90550915519,677.6795164429853,558.0178679651601,888.4923171306262C553.1302267751303,1099.3051178182673,554.5625465622585,1298.5301239501605,568.2262352347318,1510.448071095056C581.8899239072051,1722.3660182399517,628.0377058724553,2051.7413451825096,640,2160L 1920 2160 L 1920 -1080 Z" fill="url(&quot;#SvgjsLinearGradient1135&quot;)"></path><path d="M960,-1080C954.2089148129274,-1014.5700357722862,926.7652251503973,-835.2678447852163,925.2534888775649,-687.4202146337176C923.7417526047325,-539.5725844822189,957.6654019501684,-356.7012957232026,950.9295823630055,-192.91421909100765C944.1937627758425,-29.127142458812727,894.4037203360655,136.0657137165086,884.8385713545873,295.302245159452C875.2734223731092,454.5387766023954,889.2855265998411,596.0825288849854,893.5386884741367,762.5049695666527C897.7918503484324,928.9274102483199,912.874583542514,1129.2060348939908,910.3575426003612,1293.8368892494555C907.8405016582084,1458.46774360492,870.1626999212799,1605.9295772410162,878.4364428212198,1750.2900956994404C886.7101857211596,1894.6506141578645,946.4060738035366,2091.715015949907,960,2160L 1920 2160 L 1920 -1080 Z" fill="url(&quot;#SvgjsLinearGradient1136&quot;)"></path><path d="M1280,-1080C1278.4825694347774,-998.0343352060564,1274.9665427661246,-745.4967790414441,1270.8954166086642,-588.2060112363387C1266.8242904512038,-430.91524343123325,1242.8038955680213,-298.96246981563434,1255.5732430552375,-136.25539316936747C1268.3425905424538,26.451683476899376,1353.457379563639,248.03582317800743,1347.5115015319611,388.0364486412624C1341.5656235002832,528.0370741045174,1220.1056709035208,565.5757274569869,1219.8979748651705,703.7483596101622C1219.69027882682,841.9209917633375,1346.1148365056597,1046.82171880212,1346.2653253018584,1217.0722415603145C1346.4158140980571,1387.3227643185091,1231.8451285260062,1568.0968697527155,1220.8009076423632,1725.2514961593297C1209.7566867587202,1882.4061225659439,1270.1334846070606,2087.541916026555,1280,2160L 1920 2160 L 1920 -1080 Z" fill="url(&quot;#SvgjsLinearGradient1137&quot;)"></path><path d="M1600,-1080C1586.348355338724,-974.9361444530424,1517.0920319711604,-653.1612074157368,1518.090132032345,-449.61686671825447C1519.0882320935298,-246.07252602077213,1605.2561480644877,-73.60723813272608,1605.9886003671088,141.26604418489404C1606.72105266973,356.13932650251417,1535.2336645220553,615.6059674154226,1522.484845848072,839.6228271874662C1509.7360271740886,1063.6396869595098,1516.5764959645537,1265.3043406817333,1529.4956883232085,1485.3672028171557C1542.4148806818632,1705.430064952578,1588.2492813872013,2047.5612004695258,1600,2160L 1920 2160 L 1920 -1080 Z" fill="url(&quot;#SvgjsLinearGradient1138&quot;)"></path></g><defs><linearGradient x1="0.1" y1="0" x2="0" y2="1" id="SvgjsLinearGradient1133"><stop stop-color="#247aeb" offset="0"></stop><stop stop-color="#249beb" offset="0"></stop></linearGradient><linearGradient x1="0.1" y1="0" x2="0" y2="1" id="SvgjsLinearGradient1134"><stop stop-color="#5195ef" offset="0"></stop><stop stop-color="#51afef" offset="0.16666666666666666"></stop></linearGradient><linearGradient x1="0.1" y1="0" x2="0" y2="1" id="SvgjsLinearGradient1135"><stop stop-color="#7db0f3" offset="0"></stop><stop stop-color="#7dc4f3" offset="0.3333333333333333"></stop></linearGradient><linearGradient x1="0.1" y1="0" x2="0" y2="1" id="SvgjsLinearGradient1136"><stop stop-color="#aacbf7" offset="0"></stop><stop stop-color="#aad8f7" offset="0.5"></stop></linearGradient><linearGradient x1="0.1" y1="0" x2="0" y2="1" id="SvgjsLinearGradient1137"><stop stop-color="#d6e6fb" offset="0"></stop><stop stop-color="#d6ecfb" offset="0.6666666666666666"></stop></linearGradient><linearGradient x1="0.1" y1="0" x2="0" y2="1" id="SvgjsLinearGradient1138"><stop stop-color="#ffffff" offset="0"></stop><stop stop-color="#ffffff" offset="0.8333333333333334"></stop></linearGradient></defs></svg>