<svg id="visual" viewBox="0 0 900 600" width="900" height="600" xmlns="http://www.w3.org/2000/svg" xmlns:xlink="http://www.w3.org/1999/xlink" version="1.1"><g stroke-width="1" stroke-linejoin="bevel"><path d="M473.9 307L460.9 364L541.7 386Z" fill="#00997e" stroke="#00997e"></path><path d="M460.9 364L460.9 407L541.7 386Z" fill="#00997e" stroke="#00997e"></path><path d="M541.7 386L599.7 343L473.9 307Z" fill="#00917b" stroke="#00917b"></path><path d="M460.9 407L542.7 431L541.7 386Z" fill="#00917b" stroke="#00917b"></path><path d="M541.7 386L621.5 412L599.7 343Z" fill="#00ae87" stroke="#00ae87"></path><path d="M599.7 343L558.7 242L473.9 307Z" fill="#038373" stroke="#038373"></path><path d="M558.7 242L514.9 220L473.9 307Z" fill="#00a784" stroke="#00a784"></path><path d="M542.7 431L621.5 412L541.7 386Z" fill="#00ae87" stroke="#00ae87"></path><path d="M514.9 220L413.1 256L473.9 307Z" fill="#00a081" stroke="#00a081"></path><path d="M473.9 307L347.3 340L460.9 364Z" fill="#038373" stroke="#038373"></path><path d="M460.9 364L383.1 393L460.9 407Z" fill="#00b689" stroke="#00b689"></path><path d="M347.3 340L383.1 393L460.9 364Z" fill="#00a081" stroke="#00a081"></path><path d="M460.9 407L474.9 483L542.7 431Z" fill="#00b689" stroke="#00b689"></path><path d="M419.1 467L474.9 483L460.9 407Z" fill="#00a081" stroke="#00a081"></path><path d="M542.7 431L616.5 448L621.5 412Z" fill="#00a784" stroke="#00a784"></path><path d="M597.7 550L616.5 448L542.7 431Z" fill="#00a081" stroke="#00a081"></path><path d="M383.1 393L419.1 467L460.9 407Z" fill="#00cc8e" stroke="#00cc8e"></path><path d="M690.5 258L646.5 268L750.4 319Z" fill="#00a081" stroke="#00a081"></path><path d="M599.7 343L646.5 268L558.7 242Z" fill="#00a784" stroke="#00a784"></path><path d="M558.7 242L528.9 167L514.9 220Z" fill="#00917b" stroke="#00917b"></path><path d="M646.5 268L599.7 343L750.4 319Z" fill="#00917b" stroke="#00917b"></path><path d="M413.1 256L347.3 340L473.9 307Z" fill="#00a081" stroke="#00a081"></path><path d="M383.1 393L349.3 448L419.1 467Z" fill="#008a77" stroke="#008a77"></path><path d="M615.7 151L528.9 167L558.7 242Z" fill="#00a081" stroke="#00a081"></path><path d="M514.9 220L421.1 163L413.1 256Z" fill="#00b689" stroke="#00b689"></path><path d="M347.3 340L349.3 448L383.1 393Z" fill="#00997e" stroke="#00997e"></path><path d="M508.9 600L597.7 550L474.9 483Z" fill="#008a77" stroke="#008a77"></path><path d="M750.4 319L599.7 343L621.5 412Z" fill="#00a784" stroke="#00a784"></path><path d="M646.5 268L615.7 151L558.7 242Z" fill="#00917b" stroke="#00917b"></path><path d="M528.9 167L421.1 163L514.9 220Z" fill="#008a77" stroke="#008a77"></path><path d="M413.1 256L295.3 307L347.3 340Z" fill="#00cc8e" stroke="#00cc8e"></path><path d="M421.1 163L376.1 185L413.1 256Z" fill="#00917b" stroke="#00917b"></path><path d="M343.3 58L358.3 192L376.1 185Z" fill="#008a77" stroke="#008a77"></path><path d="M376.1 185L358.3 192L413.1 256Z" fill="#00bd8b" stroke="#00bd8b"></path><path d="M358.3 192L347.3 201L413.1 256Z" fill="#00a784" stroke="#00a784"></path><path d="M347.3 201L295.3 307L413.1 256Z" fill="#00b689" stroke="#00b689"></path><path d="M347.3 340L274.5 341L349.3 448Z" fill="#00917b" stroke="#00917b"></path><path d="M684.5 184L615.7 151L646.5 268Z" fill="#00997e" stroke="#00997e"></path><path d="M482.9 82L418.1 101L421.1 163Z" fill="#00b689" stroke="#00b689"></path><path d="M371.1 523L474.9 483L419.1 467Z" fill="#038373" stroke="#038373"></path><path d="M474.9 483L597.7 550L542.7 431Z" fill="#00917b" stroke="#00917b"></path><path d="M616.5 448L684.5 508L621.5 412Z" fill="#008a77" stroke="#008a77"></path><path d="M351.3 506L419.1 467L349.3 448Z" fill="#00bd8b" stroke="#00bd8b"></path><path d="M351.3 506L371.1 523L419.1 467Z" fill="#00917b" stroke="#00917b"></path><path d="M216.5 447L351.3 506L349.3 448Z" fill="#00a784" stroke="#00a784"></path><path d="M214.5 332L274.5 341L295.3 307Z" fill="#00cc8e" stroke="#00cc8e"></path><path d="M295.3 307L274.5 341L347.3 340Z" fill="#00997e" stroke="#00997e"></path><path d="M690.5 258L684.5 184L646.5 268Z" fill="#038373" stroke="#038373"></path><path d="M597.7 550L684.5 508L616.5 448Z" fill="#00bd8b" stroke="#00bd8b"></path><path d="M758.4 394L750.4 319L621.5 412Z" fill="#00cc8e" stroke="#00cc8e"></path><path d="M690.5 258L712.4 211L684.5 184Z" fill="#00917b" stroke="#00917b"></path><path d="M750.4 319L712.4 211L690.5 258Z" fill="#00c58d" stroke="#00c58d"></path><path d="M768.4 424L758.4 394L621.5 412Z" fill="#00c58d" stroke="#00c58d"></path><path d="M402.1 600L508.9 600L474.9 483Z" fill="#00a784" stroke="#00a784"></path><path d="M597.7 550L626.5 600L684.5 508Z" fill="#00997e" stroke="#00997e"></path><path d="M482.9 82L421.1 163L528.9 167Z" fill="#00a784" stroke="#00a784"></path><path d="M421.1 163L418.1 101L376.1 185Z" fill="#00997e" stroke="#00997e"></path><path d="M358.3 192L252.5 183L347.3 201Z" fill="#00bd8b" stroke="#00bd8b"></path><path d="M779.2 185L695.4 158L712.4 211Z" fill="#00bd8b" stroke="#00bd8b"></path><path d="M712.4 211L695.4 158L684.5 184Z" fill="#00a081" stroke="#00a081"></path><path d="M684.5 184L695.4 158L615.7 151Z" fill="#00bd8b" stroke="#00bd8b"></path><path d="M595.7 75L482.9 82L528.9 167Z" fill="#00ae87" stroke="#00ae87"></path><path d="M595.7 75L528.9 167L615.7 151Z" fill="#038373" stroke="#038373"></path><path d="M684.5 508L768.4 424L621.5 412Z" fill="#00997e" stroke="#00997e"></path><path d="M758.4 394L791.2 334L750.4 319Z" fill="#00bd8b" stroke="#00bd8b"></path><path d="M508.9 600L612.7 600L597.7 550Z" fill="#00b689" stroke="#00b689"></path><path d="M684.5 508L759.4 552L768.4 424Z" fill="#00997e" stroke="#00997e"></path><path d="M298.3 600L402.1 600L371.1 523Z" fill="#00a081" stroke="#00a081"></path><path d="M371.1 523L402.1 600L474.9 483Z" fill="#038373" stroke="#038373"></path><path d="M612.7 600L626.5 600L597.7 550Z" fill="#00a081" stroke="#00a081"></path><path d="M802.2 334L791.2 334L758.4 394Z" fill="#00a784" stroke="#00a784"></path><path d="M750.4 319L779.2 185L712.4 211Z" fill="#00917b" stroke="#00917b"></path><path d="M664.5 41L595.7 75L615.7 151Z" fill="#00ae87" stroke="#00ae87"></path><path d="M826.2 432L802.2 334L758.4 394Z" fill="#008a77" stroke="#008a77"></path><path d="M843.2 249L779.2 185L750.4 319Z" fill="#00cc8e" stroke="#00cc8e"></path><path d="M199.6 196L214.5 332L295.3 307Z" fill="#00917b" stroke="#00917b"></path><path d="M274.5 341L216.5 447L349.3 448Z" fill="#038373" stroke="#038373"></path><path d="M351.3 506L298.3 600L371.1 523Z" fill="#00997e" stroke="#00997e"></path><path d="M252.5 183L295.3 307L347.3 201Z" fill="#00b689" stroke="#00b689"></path><path d="M343.3 58L252.5 183L358.3 192Z" fill="#00cc8e" stroke="#00cc8e"></path><path d="M214.5 332L216.5 447L274.5 341Z" fill="#008a77" stroke="#008a77"></path><path d="M843.2 249L750.4 319L791.2 334Z" fill="#00a081" stroke="#00a081"></path><path d="M695.4 158L713.4 96L615.7 151Z" fill="#00997e" stroke="#00997e"></path><path d="M779.2 185L713.4 96L695.4 158Z" fill="#00c58d" stroke="#00c58d"></path><path d="M626.5 600L759.4 552L684.5 508Z" fill="#00917b" stroke="#00917b"></path><path d="M768.4 424L826.2 432L758.4 394Z" fill="#008a77" stroke="#008a77"></path><path d="M837.2 512L826.2 432L768.4 424Z" fill="#00cc8e" stroke="#00cc8e"></path><path d="M802.2 334L843.2 249L791.2 334Z" fill="#00bd8b" stroke="#00bd8b"></path><path d="M270.5 600L298.3 600L351.3 506Z" fill="#00cc8e" stroke="#00cc8e"></path><path d="M418.1 101L343.3 58L376.1 185Z" fill="#00a784" stroke="#00a784"></path><path d="M395.1 0L343.3 58L418.1 101Z" fill="#00a784" stroke="#00a784"></path><path d="M465.9 0L418.1 101L482.9 82Z" fill="#00a784" stroke="#00a784"></path><path d="M252.5 183L199.6 196L295.3 307Z" fill="#00cc8e" stroke="#00cc8e"></path><path d="M194.6 110L214.5 182L252.5 183Z" fill="#00b689" stroke="#00b689"></path><path d="M713.4 96L664.5 41L615.7 151Z" fill="#038373" stroke="#038373"></path><path d="M595.7 75L543.7 0L482.9 82Z" fill="#00a784" stroke="#00a784"></path><path d="M194.6 110L199.6 196L214.5 182Z" fill="#008a77" stroke="#008a77"></path><path d="M214.5 182L199.6 196L252.5 183Z" fill="#00cc8e" stroke="#00cc8e"></path><path d="M110.8 502L204.5 519L216.5 447Z" fill="#008a77" stroke="#008a77"></path><path d="M644.5 0L543.7 0L595.7 75Z" fill="#00997e" stroke="#00997e"></path><path d="M900 331L843.2 249L802.2 334Z" fill="#00bd8b" stroke="#00bd8b"></path><path d="M833.2 60L746.4 0L713.4 96Z" fill="#00917b" stroke="#00917b"></path><path d="M543.7 0L465.9 0L482.9 82Z" fill="#00c58d" stroke="#00c58d"></path><path d="M204.5 519L270.5 600L351.3 506Z" fill="#00bd8b" stroke="#00bd8b"></path><path d="M163.6 413L216.5 447L214.5 332Z" fill="#00ae87" stroke="#00ae87"></path><path d="M216.5 447L204.5 519L351.3 506Z" fill="#008a77" stroke="#008a77"></path><path d="M122.6 349L163.6 413L214.5 332Z" fill="#008a77" stroke="#008a77"></path><path d="M465.9 0L395.1 0L418.1 101Z" fill="#038373" stroke="#038373"></path><path d="M259.5 31L194.6 110L252.5 183Z" fill="#00917b" stroke="#00917b"></path><path d="M759.4 552L837.2 512L768.4 424Z" fill="#038373" stroke="#038373"></path><path d="M900 415L900 331L802.2 334Z" fill="#00ae87" stroke="#00ae87"></path><path d="M626.5 600L775.4 600L759.4 552Z" fill="#00ae87" stroke="#00ae87"></path><path d="M759.4 552L800.2 600L837.2 512Z" fill="#00cc8e" stroke="#00cc8e"></path><path d="M746.4 0L644.5 0L664.5 41Z" fill="#00a081" stroke="#00a081"></path><path d="M664.5 41L644.5 0L595.7 75Z" fill="#00b689" stroke="#00b689"></path><path d="M746.4 0L664.5 41L713.4 96Z" fill="#00997e" stroke="#00997e"></path><path d="M204.5 519L193.6 558L270.5 600Z" fill="#00b689" stroke="#00b689"></path><path d="M110.8 502L193.6 558L204.5 519Z" fill="#00bd8b" stroke="#00bd8b"></path><path d="M395.1 0L338.3 0L343.3 58Z" fill="#008a77" stroke="#008a77"></path><path d="M775.4 600L800.2 600L759.4 552Z" fill="#00a081" stroke="#00a081"></path><path d="M125.6 293L122.6 349L214.5 332Z" fill="#00b689" stroke="#00b689"></path><path d="M163.6 413L110.8 502L216.5 447Z" fill="#00a081" stroke="#00a081"></path><path d="M84.8 200L125.6 293L199.6 196Z" fill="#00a081" stroke="#00a081"></path><path d="M199.6 196L125.6 293L214.5 332Z" fill="#008a77" stroke="#008a77"></path><path d="M900 415L802.2 334L826.2 432Z" fill="#00cc8e" stroke="#00cc8e"></path><path d="M259.5 31L252.5 183L343.3 58Z" fill="#038373" stroke="#038373"></path><path d="M837.2 512L900 415L826.2 432Z" fill="#00a784" stroke="#00a784"></path><path d="M900 529L900 415L837.2 512Z" fill="#00b689" stroke="#00b689"></path><path d="M900 331L900 264L843.2 249Z" fill="#00997e" stroke="#00997e"></path><path d="M843.2 249L900 192L779.2 185Z" fill="#038373" stroke="#038373"></path><path d="M338.3 0L259.5 31L343.3 58Z" fill="#00c58d" stroke="#00c58d"></path><path d="M69.8 421L110.8 399L122.6 349Z" fill="#00b689" stroke="#00b689"></path><path d="M122.6 349L110.8 399L163.6 413Z" fill="#008a77" stroke="#008a77"></path><path d="M900 264L900 228L843.2 249Z" fill="#00917b" stroke="#00917b"></path><path d="M833.2 60L713.4 96L779.2 185Z" fill="#00cc8e" stroke="#00cc8e"></path><path d="M900 228L900 192L843.2 249Z" fill="#00b689" stroke="#00b689"></path><path d="M338.3 0L256.5 0L259.5 31Z" fill="#00c58d" stroke="#00c58d"></path><path d="M259.5 31L163.6 46L194.6 110Z" fill="#008a77" stroke="#008a77"></path><path d="M110.8 399L110.8 502L163.6 413Z" fill="#008a77" stroke="#008a77"></path><path d="M900 192L833.2 60L779.2 185Z" fill="#00ae87" stroke="#00ae87"></path><path d="M900 600L900 529L837.2 512Z" fill="#008a77" stroke="#008a77"></path><path d="M0 327L69.8 421L122.6 349Z" fill="#00bd8b" stroke="#00bd8b"></path><path d="M110.8 399L69.8 421L110.8 502Z" fill="#00c58d" stroke="#00c58d"></path><path d="M63.8 282L122.6 349L125.6 293Z" fill="#00a784" stroke="#00a784"></path><path d="M106.8 109L199.6 196L194.6 110Z" fill="#00cc8e" stroke="#00cc8e"></path><path d="M106.8 109L84.8 200L199.6 196Z" fill="#00c58d" stroke="#00c58d"></path><path d="M84.8 200L63.8 282L125.6 293Z" fill="#00917b" stroke="#00917b"></path><path d="M162.6 0L163.6 46L259.5 31Z" fill="#038373" stroke="#038373"></path><path d="M110.8 502L129.6 600L193.6 558Z" fill="#008a77" stroke="#008a77"></path><path d="M193.6 558L129.6 600L270.5 600Z" fill="#00bd8b" stroke="#00bd8b"></path><path d="M92.8 600L129.6 600L110.8 502Z" fill="#008a77" stroke="#008a77"></path><path d="M800.2 600L900 600L837.2 512Z" fill="#00bd8b" stroke="#00bd8b"></path><path d="M163.6 46L106.8 109L194.6 110Z" fill="#00917b" stroke="#00917b"></path><path d="M0 263L0 327L63.8 282Z" fill="#038373" stroke="#038373"></path><path d="M900 38L846.2 0L833.2 60Z" fill="#00917b" stroke="#00917b"></path><path d="M833.2 60L846.2 0L746.4 0Z" fill="#00bd8b" stroke="#00bd8b"></path><path d="M0 493L92.8 600L110.8 502Z" fill="#008a77" stroke="#008a77"></path><path d="M256.5 0L162.6 0L259.5 31Z" fill="#00a081" stroke="#00a081"></path><path d="M85.8 0L69.8 99L106.8 109Z" fill="#00a081" stroke="#00a081"></path><path d="M900 192L900 38L833.2 60Z" fill="#00b689" stroke="#00b689"></path><path d="M85.8 0L106.8 109L163.6 46Z" fill="#038373" stroke="#038373"></path><path d="M106.8 109L69.8 99L84.8 200Z" fill="#00a784" stroke="#00a784"></path><path d="M0 263L63.8 282L84.8 200Z" fill="#008a77" stroke="#008a77"></path><path d="M63.8 282L0 327L122.6 349Z" fill="#00ae87" stroke="#00ae87"></path><path d="M69.8 421L0 493L110.8 502Z" fill="#00917b" stroke="#00917b"></path><path d="M0 327L0 407L69.8 421Z" fill="#00cc8e" stroke="#00cc8e"></path><path d="M0 407L0 424L69.8 421Z" fill="#00bd8b" stroke="#00bd8b"></path><path d="M0 174L0 263L84.8 200Z" fill="#00a081" stroke="#00a081"></path><path d="M900 38L900 0L846.2 0Z" fill="#00ae87" stroke="#00ae87"></path><path d="M0 424L0 493L69.8 421Z" fill="#00997e" stroke="#00997e"></path><path d="M69.8 99L0 174L84.8 200Z" fill="#00c58d" stroke="#00c58d"></path><path d="M162.6 0L85.8 0L163.6 46Z" fill="#00bd8b" stroke="#00bd8b"></path><path d="M69.8 99L0 89L0 174Z" fill="#038373" stroke="#038373"></path><path d="M0 493L0 600L92.8 600Z" fill="#00bd8b" stroke="#00bd8b"></path><path d="M0 0L0 89L69.8 99Z" fill="#00ae87" stroke="#00ae87"></path><path d="M85.8 0L0 0L69.8 99Z" fill="#00b689" stroke="#00b689"></path></g></svg>